<svg width="54" height="54" viewBox="0 0 54 54" fill="none" xmlns="http://www.w3.org/2000/svg">
<path d="M28 15C28 14.4477 27.5523 14 27 14C26.4477 14 26 14.4477 26 15L28 15ZM26.2929 38.7071C26.6834 39.0976 27.3166 39.0976 27.7071 38.7071L34.0711 32.3431C34.4616 31.9526 34.4616 31.3195 34.0711 30.9289C33.6805 30.5384 33.0474 30.5384 32.6569 30.9289L27 36.5858L21.3431 30.9289C20.9526 30.5384 20.3195 30.5384 19.9289 30.9289C19.5384 31.3195 19.5384 31.9526 19.9289 32.3431L26.2929 38.7071ZM26 15L26 38L28 38L28 15L26 15Z" fill="#CCCCCC"/>
<circle cx="27" cy="27" r="26" stroke="#CCCCCC" stroke-width="2"/>
</svg>
