<svg width="100" height="100" viewBox="0 0 100 100" fill="none" xmlns="http://www.w3.org/2000/svg">
<circle cx="50" cy="50" r="49.5" fill="#5F5F5F" fill-opacity="0.2" stroke="#353535"/>
<path d="M29.3913 47.9919C28.8994 52.079 29.717 56.3619 31.5133 59.866C22.2844 73.2124 27.7856 78.1914 40.8958 69.2333C46.3642 72.1155 53.8187 72.2058 59.3647 69.4468C63.4695 72.1248 67.1322 73.798 69.6534 73.798C74.0898 73.555 73.6865 69.483 71.1856 64.4695C71.3687 64.5142 72.7693 65.0407 72.9356 65.0078C73.8645 65.023 74.1025 63.6502 73.2022 63.3633L69.8272 62.2386C69.7221 62.2032 69.6111 62.1889 69.5004 62.1966C69.3898 62.2042 69.2818 62.2337 69.1826 62.2833C69.0834 62.3328 68.995 62.4015 68.9224 62.4853C68.8499 62.5692 68.7946 62.6666 68.7598 62.7718L67.6351 66.1468C67.3027 67.2007 68.8619 67.7306 69.2357 66.6809L69.7031 65.2769C74.2459 74.5852 68.7776 73.1719 61.08 68.5304C70.2912 63.3675 74.2999 50.5358 69.1952 40.9331C73.1136 35.0108 74.9951 29.9643 72.879 27.8482C71.416 26.3851 68.5751 26.7049 64.4314 28.7898L64.9258 27.3048C65.26 26.2493 63.6923 25.7236 63.3261 26.7733L62.2014 30.1483C62.1308 30.3604 62.1474 30.5919 62.2473 30.7918C62.3473 30.9918 62.5226 31.1439 62.7346 31.2148C62.7194 31.2139 66.5484 32.5108 66.3762 32.3825C67.3061 32.3968 67.544 31.0274 66.6429 30.738L65.2397 30.2706C74.6981 25.6468 73.0891 31.4038 68.2603 39.265C62.8114 30.0521 49.8117 26.3986 40.2715 31.8535C28.1248 22.4997 20.8146 26.9631 31.1801 41.5887C30.2462 43.6143 29.6423 45.7755 29.3913 47.9919ZM30.9759 51.5171C32.4853 53.7986 35.1161 55.7021 37.2255 57.0664C37.8246 57.4512 38.4456 57.8486 38.7392 58.3565C39.3535 59.4205 38.503 60.9156 38.1098 61.5079C37.5647 62.3154 36.9496 63.0748 36.4813 63.943C33.3038 60.6945 31.2551 56.3408 30.9759 51.5171ZM29.0049 71.7232C28.1105 70.8288 28.5003 67.6074 32.4195 61.4834C34.1357 64.2469 36.465 66.5781 39.2269 68.2967C33.8674 71.7021 30.0967 72.815 29.0049 71.7232ZM50.3458 69.7893C47.6457 69.7909 44.9752 69.2254 42.5074 68.1297C44.6275 66.628 46.6833 65.0375 48.6693 63.3625C48.2437 62.9922 47.8207 62.619 47.4003 62.2428C45.0395 64.2172 42.8213 65.8878 40.7937 67.2657C39.7196 66.6553 38.7059 65.9442 37.7664 65.1419C38.1612 64.2341 38.9341 63.3152 39.5146 62.4428C41.4873 59.5858 40.7482 57.0217 38.1427 55.6506C35.4562 53.9673 31.9631 51.2099 31.0872 48.0273C31.2923 46.3474 31.7116 44.7333 32.3191 43.212C38.7569 52.1608 48.7571 62.0901 57.7143 68.3322C55.3773 69.2958 52.8737 69.7909 50.3458 69.7893ZM63.8442 64.3066C63.4341 63.3422 62.3651 62.1087 62.5616 61.1763C62.9143 59.9723 64.7444 59.1395 65.4456 57.981C67.1365 55.1376 65.6363 53.4526 69.6407 52.4519C69.1471 57.0824 67.0175 61.2286 63.8442 64.3066ZM65.233 42.1388C65.9721 41.4646 66.313 40.5618 66.4733 39.6016C66.7407 40.0016 66.9913 40.4133 67.2301 40.8335C63.9707 45.8007 57.0731 53.6205 51.2335 58.8805C51.6604 59.2593 52.0856 59.6356 52.5041 59.9942C58.1657 54.8237 64.0213 48.3471 68.095 42.5497C69.216 45.0722 69.7795 47.8068 69.747 50.567C68.6333 51.1374 67.3103 51.2825 66.302 52.1296C65.2709 52.9852 64.9824 54.1572 64.7276 55.1916C64.5588 55.875 64.401 56.5197 64.0509 57.0293C63.1278 58.2924 61.2791 59.0745 60.9121 60.8144C60.5021 62.636 61.9955 63.9852 62.5043 65.4929C61.5619 66.2534 60.5506 66.9243 59.4837 67.4968C51.6452 62.5685 38.3561 49.4085 33.13 41.4444C33.9451 39.8816 34.9683 38.4366 36.1717 37.1488C37.0129 40.1745 40.2554 43.3445 43.3722 41.1457C43.8338 40.7871 44.1755 40.2741 44.5957 39.9526C45.0167 39.6573 45.5761 39.6379 45.9583 39.6708C47.0636 39.7063 47.229 40.6074 47.5952 41.5659C48.25 43.3698 49.168 44.6565 50.329 45.394C51.8519 46.3677 53.9638 46.2183 55.1122 44.7966C55.6792 44.1309 55.8842 43.1715 56.3896 42.5438C57.0207 41.8207 58.1758 41.9633 58.5226 42.0257C60.6396 42.5809 63.4459 43.8575 65.233 42.1388ZM50.3458 30.976C56.1475 30.976 61.3585 33.5384 64.9174 37.5868C65.0271 42.8771 62.2157 41.2478 58.8146 40.3627C57.3026 40.0902 55.9534 40.4808 55.1172 41.4343C54.4979 42.1244 54.303 43.0593 53.7985 43.7352C51.857 45.464 49.9206 43.1909 49.1798 40.9879C48.8608 40.1188 48.5638 39.1468 47.7218 38.5385C46.403 37.6897 44.7535 37.8323 43.6211 38.5748C43.0955 38.941 42.7664 39.4523 42.3201 39.8244C41.4122 40.5466 39.9787 40.0438 39.1695 39.162C38.3874 38.3149 37.925 37.1202 37.5149 35.841C40.938 32.817 45.4293 30.9768 50.3458 30.9768V30.976ZM28.2522 29.0429C29.166 28.1292 32.4963 28.5485 38.87 32.6981C36.0697 34.5209 33.7396 36.9794 32.0694 39.8733C28.3586 34.1898 27.1174 30.1753 28.2514 29.0413L28.2522 29.0429Z" fill="#79FDFF"/>
</svg>
