<svg width="101" height="100" viewBox="0 0 101 100" fill="none" xmlns="http://www.w3.org/2000/svg">
<circle cx="50.5" cy="50" r="49.5" fill="#5F5F5F" fill-opacity="0.2" stroke="#353535"/>
<g clip-path="url(#clip0_78_595)">
<path d="M58.9937 30.1077C60.8578 30.1006 62.6977 30.5309 64.3654 31.3638C66.0331 32.1967 67.4822 33.4092 68.5964 34.9037C68.673 35.006 68.769 35.0921 68.8789 35.1572C68.9888 35.2223 69.1105 35.2651 69.237 35.2831C69.3634 35.3012 69.4922 35.2942 69.616 35.2625C69.7397 35.2307 69.856 35.175 69.9582 35.0983C70.1645 34.9434 70.3008 34.713 70.3373 34.4576C70.3738 34.2023 70.3074 33.9429 70.1527 33.7365C65.7913 27.9473 57.714 26.4814 51.5964 30.3683C45.479 34.2553 43.3756 42.1913 46.7647 48.5984C50.154 55.0055 57.8978 57.7322 64.5534 54.8627C71.2097 51.9922 74.5428 44.4903 72.2106 37.6272C72.1217 37.3911 71.9445 37.1989 71.7166 37.0909C71.4886 36.983 71.2277 36.9678 70.9887 37.0485C70.7498 37.1293 70.5515 37.2996 70.4358 37.5237C70.32 37.7478 70.2958 38.0081 70.3683 38.2497C72.0501 43.1907 70.3494 48.6523 66.1591 51.7642C61.9687 54.8763 56.2487 54.9263 52.0045 51.8889C47.7612 48.8508 45.964 43.4203 47.5583 38.4503C49.1525 33.481 53.7739 30.1092 58.9937 30.1077Z" fill="#79FDFF"/>
<path d="M58.9936 23.0031C55.6548 23.0041 52.3745 23.8794 49.4791 25.542C46.5837 27.2045 44.1741 29.5963 42.4901 32.4793C40.8059 35.3621 39.9058 38.6356 39.8795 41.9742C39.8532 45.3128 40.7016 48.6001 42.3403 51.509C42.4031 51.6202 42.4872 51.718 42.5878 51.7968C42.6885 51.8755 42.8036 51.9337 42.9267 51.9679C43.0498 52.0021 43.1784 52.0117 43.3052 51.9962C43.432 51.9807 43.5546 51.9403 43.6658 51.8774C43.777 51.8146 43.8748 51.7306 43.9535 51.63C44.0322 51.5294 44.0904 51.4142 44.1246 51.2912C44.1588 51.1681 44.1684 51.0395 44.1529 50.9127C44.1374 50.7859 44.0971 50.6634 44.0342 50.5522C39.5903 42.68 42.0038 32.7112 49.5554 27.7428C57.1075 22.7741 67.2168 24.5046 72.687 31.7019C78.1569 38.8987 77.1173 49.1031 70.3083 55.0487C63.4993 60.9943 53.2486 60.651 46.8535 54.2614C46.7633 54.171 46.6562 54.0994 46.5383 54.0505C46.4203 54.0016 46.2939 53.9764 46.1662 53.9764C46.0386 53.9764 45.9121 54.0016 45.7942 54.0505C45.6763 54.0994 45.5691 54.171 45.4789 54.2614L42.8565 56.8838C42.1187 56.4412 41.2544 56.2572 40.4003 56.361C39.5462 56.4648 38.7512 56.8505 38.1409 57.4569L25.2427 70.3515C23.7342 71.8631 23.7342 74.31 25.2427 75.8217L25.289 75.8687C26.8006 77.3772 29.2481 77.3772 30.7596 75.8687L43.6574 62.9724C44.262 62.3628 44.6458 61.5688 44.7479 60.7163C44.85 59.8638 44.6647 59.0016 44.2212 58.2664L46.181 56.3056C52.5136 62.0219 61.867 62.8501 69.1052 58.3363C76.3436 53.8215 79.7149 45.0579 77.3681 36.8567C75.0213 28.6556 67.524 23.0014 58.9936 23V23.0031ZM42.2812 61.6001L29.3841 74.4933C28.6324 75.2425 27.4165 75.2425 26.6644 74.4933L26.6177 74.4468C25.8672 73.6959 25.8672 72.4786 26.6177 71.7279L39.514 58.831C39.6922 58.6518 39.9042 58.5098 40.1377 58.4131C40.3712 58.3164 40.6215 58.267 40.8743 58.2678C41.1378 58.2694 41.3982 58.3243 41.6399 58.4292C41.8816 58.534 42.0996 58.6867 42.2808 58.8781C43.031 59.629 43.031 60.8455 42.2808 61.5964L42.2812 61.6001Z" fill="#79FDFF"/>
</g>
<defs>
<clipPath id="clip0_78_595">
<rect width="54" height="54" fill="white" transform="translate(24 23)"/>
</clipPath>
</defs>
</svg>
