<svg width="100" height="100" viewBox="0 0 100 100" fill="none" xmlns="http://www.w3.org/2000/svg">
<circle cx="50" cy="50" r="49.5" fill="#5F5F5F" fill-opacity="0.2" stroke="#353535"/>
<path d="M50.0005 42.0529C43.7958 42.0529 37.9476 41.148 33.5326 39.5059C28.7897 37.7403 26.1772 35.2618 26.1772 32.527C26.1772 29.7922 28.7897 27.3126 33.5326 25.5471C37.9476 23.9049 43.7958 23 50.0005 23C56.2053 23 62.0524 23.9049 66.4663 25.5471C71.2124 27.3126 73.8217 29.7911 73.8217 32.527C73.8217 35.2629 71.2124 37.7403 66.4663 39.5059C62.0524 41.148 56.2042 42.0529 50.0005 42.0529ZM50.0005 25.1094C37.204 25.1094 28.2866 29.018 28.2866 32.527C28.2866 36.0359 37.204 39.9436 50.0005 39.9436C62.7971 39.9436 71.7134 36.0349 71.7134 32.527C71.7134 29.0191 62.796 25.1094 50.0005 25.1094ZM50.0005 53.702C43.7958 53.702 37.9476 52.797 33.5326 51.1549C28.7897 49.3893 26.1772 46.9108 26.1772 44.175C26.1772 43.8952 26.2884 43.627 26.4862 43.4292C26.6839 43.2314 26.9522 43.1203 27.2319 43.1203C27.5117 43.1203 27.7799 43.2314 27.9777 43.4292C28.1755 43.627 28.2866 43.8952 28.2866 44.175C28.2866 47.6797 37.204 51.5926 50.0005 51.5926C62.7971 51.5926 71.7134 47.6797 71.7134 44.175C71.7134 43.8952 71.8245 43.627 72.0223 43.4292C72.2201 43.2314 72.4883 43.1203 72.7681 43.1203C73.0478 43.1203 73.3161 43.2314 73.5138 43.4292C73.7116 43.627 73.8228 43.8952 73.8228 44.175C73.8228 46.9108 71.2113 49.3893 66.4674 51.1549C62.0524 52.797 56.2042 53.702 50.0005 53.702ZM50.0005 65.351C43.7958 65.351 37.9476 64.4461 33.5326 62.8039C28.7897 61.0384 26.1772 58.5598 26.1772 55.824C26.1772 55.5443 26.2884 55.276 26.4862 55.0782C26.6839 54.8804 26.9522 54.7693 27.2319 54.7693C27.5117 54.7693 27.7799 54.8804 27.9777 55.0782C28.1755 55.276 28.2866 55.5443 28.2866 55.824C28.2866 59.3329 37.204 63.2416 50.0005 63.2416C62.7971 63.2416 71.7134 59.3329 71.7134 55.824C71.7134 55.5443 71.8245 55.276 72.0223 55.0782C72.2201 54.8804 72.4883 54.7693 72.7681 54.7693C73.0478 54.7693 73.3161 54.8804 73.5138 55.0782C73.7116 55.276 73.8228 55.5443 73.8228 55.824C73.8228 58.5598 71.2113 61.0384 66.4674 62.8039C62.0524 64.4492 56.2042 65.351 50.0005 65.351Z" fill="#79FDFF"/>
<path d="M50.0005 77C43.7958 77 37.9476 76.0951 33.5326 74.4519C28.7897 72.6874 26.1772 70.2089 26.1772 67.473V32.527C26.1772 32.2473 26.2884 31.979 26.4862 31.7812C26.6839 31.5834 26.9522 31.4723 27.2319 31.4723C27.5117 31.4723 27.7799 31.5834 27.9777 31.7812C28.1755 31.979 28.2866 32.2473 28.2866 32.527V67.473C28.2866 70.9819 37.204 74.8906 50.0005 74.8906C62.7971 74.8906 71.7134 70.9819 71.7134 67.473V32.527C71.7134 32.2473 71.8245 31.979 72.0223 31.7812C72.2201 31.5834 72.4883 31.4723 72.7681 31.4723C73.0478 31.4723 73.3161 31.5834 73.5138 31.7812C73.7116 31.979 73.8228 32.2473 73.8228 32.527V67.473C73.8228 70.2089 71.2113 72.6874 66.4674 74.4519C62.0524 76.0951 56.2042 77 50.0005 77Z" fill="#79FDFF"/>
<path d="M67.4735 45.2307C67.4044 45.2305 67.3356 45.2234 67.2679 45.2096C67.2003 45.196 67.1343 45.1758 67.0706 45.1495C67.0068 45.1233 66.9456 45.0908 66.8882 45.0524C66.7725 44.9761 66.6734 44.8771 66.5971 44.7613C66.5592 44.7036 66.5267 44.6426 66.5001 44.5789C66.4737 44.5152 66.4536 44.4492 66.4399 44.3817C66.4118 44.2456 66.4118 44.1053 66.4399 43.9693C66.4664 43.8333 66.5197 43.704 66.5967 43.5888C66.6736 43.4737 66.7727 43.375 66.8882 43.2985C66.9456 43.2602 67.0068 43.2277 67.0706 43.2015C67.1343 43.1751 67.2003 43.155 67.2679 43.1413C67.404 43.1139 67.5442 43.1139 67.6803 43.1413C67.8842 43.1826 68.0715 43.2827 68.2192 43.4293C68.268 43.4789 68.3121 43.533 68.351 43.5906C68.4277 43.7054 68.4811 43.834 68.5082 43.9693C68.5349 44.1054 68.5349 44.2455 68.5082 44.3817C68.4946 44.4492 68.4744 44.5152 68.4481 44.5789C68.4214 44.6426 68.3889 44.7036 68.351 44.7613C68.3124 44.8189 68.2682 44.8726 68.2192 44.9217C68.1704 44.9706 68.1167 45.0145 68.0589 45.0524C68.0017 45.0905 67.9409 45.123 67.8775 45.1495C67.8138 45.1757 67.7477 45.1958 67.6803 45.2096C67.6122 45.2234 67.543 45.2305 67.4735 45.2307ZM63.2379 46.2896C63.1688 46.2894 63.0999 46.2823 63.0322 46.2685C62.9647 46.2549 62.8987 46.2348 62.835 46.2084C62.7711 46.1822 62.71 46.1497 62.6526 46.1114C62.5948 46.0734 62.5411 46.0295 62.4922 45.9806C62.3939 45.8827 62.316 45.7662 62.2634 45.6378C62.237 45.5742 62.2169 45.5081 62.2033 45.4406C62.1894 45.3711 62.1827 45.3004 62.1832 45.2296C62.1828 45.1588 62.1895 45.0882 62.2033 45.0187C62.2172 44.9512 62.2373 44.8852 62.2634 44.8215C62.3165 44.6936 62.3943 44.5775 62.4922 44.4797C62.541 44.4304 62.5948 44.3863 62.6526 44.3479C62.71 44.3096 62.7711 44.2771 62.835 44.2509C62.8987 44.2245 62.9647 44.2044 63.0322 44.1908C63.168 44.1633 63.3078 44.1633 63.4436 44.1908C63.5111 44.2044 63.5772 44.2245 63.6408 44.2509C63.7047 44.2771 63.7658 44.3096 63.8233 44.3479C63.9387 44.425 64.0376 44.5243 64.1144 44.6401C64.1524 44.6973 64.1849 44.758 64.2114 44.8215C64.2379 44.885 64.2581 44.9511 64.2715 45.0187C64.2856 45.0881 64.2927 45.1588 64.2926 45.2296C64.2928 45.3005 64.2857 45.3712 64.2715 45.4406C64.2584 45.5082 64.2382 45.5743 64.2114 45.6378C64.1849 45.7016 64.1525 45.7627 64.1144 45.8203C64.038 45.936 63.939 46.035 63.8233 46.1114C63.7658 46.1497 63.7047 46.1822 63.6408 46.2084C63.5772 46.2348 63.5111 46.2549 63.4436 46.2685C63.3759 46.2823 63.307 46.2894 63.2379 46.2896ZM59.0023 47.3485C58.9314 47.3486 58.8608 47.3415 58.7913 47.3274C58.7239 47.3136 58.6578 47.2935 58.5941 47.2673C58.4008 47.1886 58.2357 47.0533 58.1206 46.8792C58.0822 46.8217 58.0497 46.7606 58.0235 46.6967C57.9972 46.6331 57.977 46.567 57.9634 46.4995C57.9499 46.4318 57.9432 46.3629 57.9434 46.2938C57.943 46.223 57.9497 46.1523 57.9634 46.0829C57.9791 46.0156 58.001 45.9499 58.0288 45.8867C58.082 45.7591 58.1593 45.6431 58.2566 45.545C58.3063 45.4962 58.3603 45.4521 58.418 45.4131C58.4752 45.3751 58.5359 45.3426 58.5994 45.3161C58.6631 45.2899 58.7291 45.2698 58.7966 45.256C58.9327 45.2286 59.0729 45.2286 59.209 45.256C59.2765 45.2696 59.3426 45.2897 59.4062 45.3161C59.4699 45.3428 59.531 45.3753 59.5887 45.4131C59.646 45.4521 59.6997 45.4962 59.749 45.545C59.798 45.5938 59.8418 45.6475 59.8798 45.7053C59.9179 45.7625 59.9504 45.8233 59.9768 45.8867C60.0029 45.9504 60.023 46.0165 60.0369 46.0839C60.051 46.1534 60.0581 46.224 60.058 46.2949C60.0578 46.364 60.0508 46.4328 60.0369 46.5005C60.0233 46.5681 60.0032 46.6341 59.9768 46.6978C59.9506 46.7616 59.9181 46.8228 59.8798 46.8802C59.8418 46.938 59.798 46.9917 59.749 47.0405C59.7 47.0893 59.6463 47.1331 59.5887 47.1713C59.531 47.2092 59.4699 47.2417 59.4062 47.2683C59.3426 47.2947 59.2765 47.3148 59.209 47.3285C59.1409 47.342 59.0717 47.3487 59.0023 47.3485ZM67.4735 56.8787C67.4045 56.8788 67.3356 56.8721 67.2679 56.8586C67.2003 56.845 67.1343 56.8249 67.0706 56.7985C67.0068 56.7723 66.9456 56.7398 66.8882 56.7015C66.8304 56.6631 66.7767 56.6189 66.7279 56.5696C66.5307 56.3715 66.4196 56.1035 66.4188 55.824C66.4187 55.7531 66.4258 55.6824 66.4399 55.613C66.4536 55.5455 66.4737 55.4794 66.5001 55.4158C66.5267 55.3521 66.5592 55.291 66.5971 55.2333C66.6353 55.1757 66.6791 55.1221 66.7279 55.073C66.7767 55.0241 66.8304 54.9802 66.8882 54.9422C66.9456 54.9039 67.0068 54.8714 67.0706 54.8452C67.1343 54.8188 67.2003 54.7987 67.2679 54.7851C67.404 54.7577 67.5442 54.7577 67.6803 54.7851C67.8155 54.8122 67.9442 54.8656 68.0589 54.9422C68.1167 54.9802 68.1704 55.0241 68.2192 55.073C68.268 55.1223 68.3121 55.176 68.351 55.2333C68.3889 55.291 68.4214 55.3521 68.4481 55.4158C68.4744 55.4794 68.4946 55.5455 68.5082 55.613C68.522 55.6825 68.5287 55.7532 68.5282 55.824C68.5275 56.1035 68.4164 56.3715 68.2192 56.5696C68.1704 56.6189 68.1167 56.6631 68.0589 56.7015C67.9442 56.7781 67.8155 56.8315 67.6803 56.8586C67.6122 56.8721 67.5429 56.8788 67.4735 56.8787ZM63.2379 57.9376C63.1689 57.9377 63.1 57.931 63.0322 57.9175C62.9647 57.9039 62.8987 57.8838 62.835 57.8574C62.7711 57.8312 62.71 57.7987 62.6526 57.7604C62.5948 57.7224 62.5411 57.6786 62.4922 57.6296C62.4435 57.5803 62.3994 57.5266 62.3604 57.4693C62.3225 57.4116 62.29 57.3505 62.2634 57.2868C62.237 57.2232 62.2169 57.1571 62.2033 57.0896C62.1765 56.9534 62.1765 56.8134 62.2033 56.6772C62.2169 56.6097 62.237 56.5436 62.2634 56.48C62.29 56.4163 62.3225 56.3552 62.3604 56.2975C62.3994 56.2402 62.4435 56.1865 62.4922 56.1372C62.5411 56.0882 62.5948 56.0444 62.6526 56.0064C62.71 55.9681 62.7711 55.9356 62.835 55.9094C62.8987 55.883 62.9647 55.8629 63.0322 55.8493C63.168 55.8219 63.3078 55.8219 63.4436 55.8493C63.5111 55.8629 63.5772 55.883 63.6408 55.9094C63.7047 55.9356 63.7658 55.9681 63.8233 56.0064C63.881 56.0444 63.9348 56.0882 63.9836 56.1372C64.0323 56.1862 64.0761 56.2399 64.1144 56.2975C64.1522 56.3552 64.1847 56.4163 64.2114 56.48C64.2382 56.5435 64.2584 56.6096 64.2715 56.6772C64.2996 56.8132 64.2996 56.9536 64.2715 57.0896C64.2584 57.1572 64.2382 57.2233 64.2114 57.2868C64.1847 57.3505 64.1522 57.4116 64.1144 57.4693C64.0761 57.5269 64.0323 57.5806 63.9836 57.6296C63.9348 57.6786 63.881 57.7224 63.8233 57.7604C63.7658 57.7987 63.7047 57.8312 63.6408 57.8574C63.5772 57.8838 63.5111 57.9039 63.4436 57.9175C63.3759 57.931 63.307 57.9377 63.2379 57.9376ZM59.0023 58.9965C58.9315 58.9969 58.8608 58.9902 58.7913 58.9764C58.7239 58.9627 58.6578 58.9425 58.5941 58.9163C58.4664 58.8628 58.3501 58.7855 58.2513 58.6885C58.1536 58.5903 58.0762 58.4738 58.0235 58.3457C57.9972 58.2821 57.977 58.216 57.9634 58.1485C57.95 58.0808 57.9432 58.0119 57.9434 57.9428C57.9439 57.6631 58.0545 57.3949 58.2513 57.1961C58.301 57.1477 58.355 57.1039 58.4127 57.0653C58.4699 57.0272 58.5307 56.9947 58.5941 56.9683C58.6578 56.9421 58.7239 56.922 58.7913 56.9082C58.996 56.8666 59.2084 56.8871 59.4013 56.967C59.5943 57.0468 59.7591 57.1824 59.8745 57.3564C59.9124 57.4141 59.9449 57.4752 59.9715 57.5389C59.9979 57.6025 60.018 57.6686 60.0317 57.7361C60.0598 57.8721 60.0598 58.0125 60.0317 58.1485C60.018 58.216 59.9979 58.2821 59.9715 58.3457C59.9449 58.4094 59.9124 58.4705 59.8745 58.5282C59.7982 58.6439 59.6991 58.7429 59.5834 58.8193C59.5257 58.8572 59.4646 58.8897 59.401 58.9163C59.3373 58.9427 59.2713 58.9628 59.2037 58.9764C59.1374 58.9896 59.0699 58.9963 59.0023 58.9965ZM67.4735 68.5277C67.4045 68.5279 67.3356 68.5211 67.2679 68.5076C67.2003 68.494 67.1343 68.4739 67.0706 68.4475C67.0068 68.4216 66.9457 68.3895 66.8882 68.3515C66.8306 68.3129 66.7769 68.2687 66.7279 68.2197C66.6789 68.1709 66.6351 68.1172 66.5971 68.0594C66.559 68.0022 66.5265 67.9414 66.5001 67.878C66.4738 67.8143 66.4537 67.7483 66.4399 67.6808C66.4258 67.6113 66.4188 67.5407 66.4188 67.4698C66.419 67.4007 66.4261 67.3318 66.4399 67.2642C66.4536 67.1966 66.4737 67.1306 66.5001 67.0669C66.5263 67.003 66.5588 66.9419 66.5971 66.8845C66.6734 66.7688 66.7725 66.6697 66.8882 66.5934C66.9456 66.5551 67.0068 66.5226 67.0706 66.4963C67.1343 66.47 67.2003 66.4498 67.2679 66.4362C67.404 66.4088 67.5442 66.4088 67.6803 66.4362C67.7477 66.45 67.8138 66.4701 67.8775 66.4963C67.9409 66.5228 68.0017 66.5553 68.0589 66.5934C68.1167 66.6314 68.1704 66.6752 68.2192 66.7242C68.2682 66.7732 68.3124 66.8269 68.351 66.8845C68.3893 66.9419 68.4219 67.003 68.4481 67.0669C68.4744 67.1306 68.4946 67.1966 68.5082 67.2642C68.5217 67.3319 68.5284 67.4008 68.5282 67.4698C68.5286 67.5406 68.5219 67.6113 68.5082 67.6808C68.4944 67.7483 68.4743 67.8143 68.4481 67.878C68.382 68.0385 68.2774 68.1802 68.1435 68.2906C68.0095 68.401 67.8504 68.4766 67.6803 68.5108C67.6121 68.5232 67.5428 68.5289 67.4735 68.5277ZM63.2379 69.5866C63.1689 69.5868 63.1 69.58 63.0322 69.5665C62.9647 69.5529 62.8987 69.5328 62.835 69.5064C62.7711 69.4802 62.71 69.4477 62.6526 69.4094C62.5371 69.3319 62.4379 69.2327 62.3604 69.1172C62.3231 69.0598 62.2909 68.9991 62.2644 68.9358C62.2376 68.8724 62.2174 68.8063 62.2043 68.7386C62.1902 68.6692 62.1832 68.5985 62.1832 68.5277C62.1834 68.4586 62.1905 68.3897 62.2043 68.322C62.2174 68.2544 62.2376 68.1883 62.2644 68.1248C62.2907 68.0611 62.3228 68 62.3604 67.9423C62.3991 67.8848 62.4432 67.8311 62.4922 67.782C62.5411 67.733 62.5948 67.6892 62.6526 67.6512C62.71 67.6129 62.7711 67.5804 62.835 67.5542C62.8987 67.5278 62.9647 67.5077 63.0322 67.4941C63.168 67.4667 63.3078 67.4667 63.4436 67.4941C63.5111 67.5077 63.5772 67.5278 63.6408 67.5542C63.7047 67.5804 63.7658 67.6129 63.8233 67.6512C63.881 67.6892 63.9348 67.733 63.9836 67.782C64.0323 67.831 64.0761 67.8847 64.1144 67.9423C64.1527 67.9998 64.1852 68.0609 64.2114 68.1248C64.2382 68.1883 64.2584 68.2544 64.2715 68.322C64.2854 68.3897 64.2924 68.4586 64.2926 68.5277C64.2927 68.5985 64.2856 68.6692 64.2715 68.7386C64.2584 68.8063 64.2382 68.8724 64.2114 68.9358C64.1849 68.9993 64.1524 69.06 64.1144 69.1172C64.0764 69.175 64.0325 69.2287 63.9836 69.2776C63.9345 69.3266 63.8808 69.3707 63.8233 69.4094C63.7658 69.4477 63.7047 69.4802 63.6408 69.5064C63.5772 69.5328 63.5111 69.5529 63.4436 69.5665C63.3759 69.58 63.307 69.5868 63.2379 69.5866ZM59.0023 70.6465C58.9314 70.6466 58.8608 70.6395 58.7913 70.6255C58.7239 70.6117 58.6578 70.5916 58.5941 70.5653C58.4014 70.4854 58.2368 70.3502 58.121 70.1768C58.0051 70.0033 57.9433 69.7994 57.9434 69.5908C57.9432 69.5218 57.95 69.4529 57.9634 69.3851C57.977 69.3176 57.9972 69.2516 58.0235 69.1879C58.0762 69.0598 58.1536 68.9433 58.2513 68.8451C58.3501 68.7481 58.4664 68.6708 58.5941 68.6173C58.6578 68.5911 58.7239 68.571 58.7913 68.5572C58.9274 68.5298 59.0676 68.5298 59.2037 68.5572C59.2713 68.5708 59.3373 68.591 59.401 68.6173C59.4646 68.644 59.5257 68.6765 59.5834 68.7144C59.6991 68.7907 59.7982 68.8897 59.8745 69.0055C59.9124 69.0632 59.9449 69.1242 59.9715 69.1879C59.9979 69.2516 60.018 69.3176 60.0317 69.3851C60.0455 69.4528 60.0525 69.5217 60.0528 69.5908C60.0528 69.7644 60.01 69.9353 59.9281 70.0884C59.8462 70.2415 59.7278 70.372 59.5834 70.4683C59.5257 70.5062 59.4646 70.5387 59.401 70.5653C59.3373 70.5917 59.2713 70.6118 59.2037 70.6255C59.1374 70.639 59.07 70.6461 59.0023 70.6465Z" fill="#79FDFF"/>
</svg>
