<svg width="101" height="100" viewBox="0 0 101 100" fill="none" xmlns="http://www.w3.org/2000/svg">
<circle cx="50.5" cy="50" r="49.5" fill="#5F5F5F" fill-opacity="0.2" stroke="#353535"/>
<g clip-path="url(#clip0_94_441)">
<path d="M51.3355 48.6659C51.2376 48.5678 51.1213 48.49 50.9932 48.4369C50.8652 48.3839 50.728 48.3566 50.5894 48.3566C50.4508 48.3566 50.3135 48.3839 50.1855 48.4369C50.0574 48.49 49.9411 48.5678 49.8432 48.6659C49.4318 49.0772 49.4318 49.7448 49.8432 50.1572C50.2555 50.5685 50.9232 50.5685 51.3355 50.1572C51.7469 49.7448 51.7469 49.0772 51.3355 48.6659ZM64.7587 35.2417C62.6978 33.181 59.3616 33.1809 57.3007 35.2417C55.2452 37.2972 55.2451 40.6427 57.301 42.6998C59.3572 44.7548 62.7027 44.7556 64.7587 42.6996C66.8193 40.639 66.8197 37.3027 64.7587 35.2417ZM63.2671 41.208C62.0339 42.4413 60.0264 42.4413 58.7925 41.2082C57.559 39.974 57.5589 37.9665 58.7923 36.7333C60.0287 35.4968 62.0305 35.4966 63.2671 36.7333C64.5035 37.9696 64.5037 39.9715 63.2671 41.208Z" fill="#79FDFF"/>
<path d="M76.691 23.3089C76.5887 23.2063 76.4663 23.126 76.3314 23.0729C76.1966 23.0199 76.0522 22.9953 75.9074 23.0007C75.6689 23.0093 69.991 23.2375 63.2416 25.6231C57.8331 27.5327 53.3251 30.2668 49.8426 33.7494C49.0531 34.54 48.297 35.3632 47.5763 36.2169C44.1329 34.19 41.3737 34.8256 39.6293 35.7591C35.613 37.9085 33.127 43.7448 33.127 47.9192C33.1271 48.1989 33.2383 48.4671 33.4361 48.6648C33.6339 48.8626 33.9021 48.9737 34.1817 48.9739C34.3203 48.9739 34.4575 48.9467 34.5855 48.8936C34.7135 48.8406 34.8298 48.7629 34.9277 48.665C37.0459 46.5468 39.6584 46.6793 40.5119 46.7915L40.8812 47.1609C40.1543 48.8906 39.5688 50.6106 39.1393 52.2834C38.9843 52.8888 39.0366 53.5294 39.267 54.1154C38.2516 54.5834 37.2719 55.2705 36.4188 56.1235C33.704 58.8385 33.1527 65.455 33.1305 65.7353C33.1185 65.8873 33.1396 66.0401 33.1924 66.1832C33.2452 66.3263 33.3283 66.4562 33.4361 66.564C33.544 66.6719 33.6739 66.755 33.817 66.8078C33.96 66.8606 34.1128 66.8817 34.2649 66.8697C34.5452 66.8477 41.1619 66.2964 43.8767 63.5815C44.7295 62.7288 45.4165 61.7492 45.8845 60.734C46.5048 60.9779 47.1433 61.008 47.7175 60.8609C49.3896 60.4315 51.1094 59.8461 52.8393 59.1191L53.2086 59.4885C53.3207 60.3421 53.4532 62.9546 51.3352 65.0725C51.1877 65.22 51.0873 65.408 51.0466 65.6125C51.006 65.8171 51.0269 66.0291 51.1067 66.2218C51.1865 66.4145 51.3217 66.5792 51.4951 66.6951C51.6685 66.811 51.8724 66.8729 52.081 66.8729C56.2554 66.8729 62.0915 64.3869 64.241 60.3705C65.1745 58.6264 65.81 55.8671 63.7831 52.4237C64.6368 51.7029 65.4601 50.9468 66.2507 50.1574C69.7333 46.6748 72.4672 42.1667 74.3768 36.7587C76.7625 30.0089 76.9907 24.3309 76.9992 24.0926C77.0098 23.7999 76.8981 23.5161 76.691 23.3089ZM35.485 45.6507C36.1402 42.48 38.0432 39.0007 40.625 37.6188C42.3504 36.6955 44.2363 36.786 46.2415 37.8836C44.5282 40.1383 43.0438 42.558 41.8102 45.1069C41.7945 45.0972 41.6046 44.8585 41.2519 44.779C41.1069 44.7462 38.3163 44.146 35.485 45.6507ZM42.3852 62.0899C40.935 63.5401 37.5331 64.3049 35.3829 64.6172C35.6953 62.4669 36.4603 59.0651 37.9104 57.6151C38.7225 56.8029 39.6641 56.1872 40.6106 55.8404L44.1598 59.3897C43.813 60.3362 43.1974 61.2778 42.3852 62.0899ZM47.1935 58.8175C46.8883 58.8957 46.5348 58.7809 46.2719 58.5185L44.2062 56.4529L41.4824 53.729C41.2194 53.4654 41.1046 53.112 41.1826 52.8073C41.5204 51.4916 41.9622 50.1419 42.4994 48.7791L51.2212 57.5008C49.8582 58.0382 48.5086 58.4799 47.1935 58.8175ZM62.3815 59.3752C60.9996 61.957 57.5204 63.8601 54.3498 64.5151C55.3607 62.6128 55.5836 60.1911 55.2142 58.7227C55.1285 58.3816 54.9059 58.2101 54.8935 58.19C57.4423 56.9563 59.8619 55.4719 62.1166 53.7587C63.2142 55.7641 63.3046 57.6502 62.3815 59.3752ZM64.7594 48.6658C63.7947 49.6289 62.7794 50.5397 61.7176 51.3945C59.1503 53.4617 56.3246 55.2127 53.3099 56.6066L43.3937 46.6906C44.7876 43.6757 46.5386 40.85 48.6055 38.283C49.4666 37.2142 50.3846 36.1908 51.3346 35.2409C54.4591 32.1163 58.4916 29.6296 63.3233 27.8395L72.1607 36.677C70.3709 41.5086 67.8842 45.5411 64.7594 48.6658ZM72.9196 34.4525L65.5477 27.0807C69.5641 25.8332 73.0582 25.3661 74.8022 25.1982C74.6342 26.9425 74.167 30.4366 72.9196 34.4525Z" fill="#79FDFF"/>
<path d="M48.3517 66.5637C47.9397 66.1518 47.2718 66.152 46.8601 66.5639L43.8774 69.5476C43.4657 69.9596 43.4658 70.6274 43.8776 71.0392C44.2897 71.4509 44.9575 71.4509 45.3693 71.0389L48.3519 68.0552C48.7637 67.6433 48.7636 66.9754 48.3517 66.5637ZM33.4367 51.6485C33.0249 51.2366 32.3572 51.2365 31.9451 51.6483L28.9614 54.631C28.5494 55.0427 28.5493 55.7105 28.9611 56.1225C29.3727 56.5342 30.0405 56.5347 30.4526 56.1227L33.4363 53.1401C33.8483 52.7283 33.8484 52.0605 33.4367 51.6485ZM40.8942 68.0562C40.4826 67.6443 39.8147 67.6443 39.4027 68.0561L32.2583 75.1995C31.8463 75.6113 31.8463 76.2792 32.2581 76.691C32.6698 77.1029 33.3377 77.1031 33.7497 76.6911L40.8941 69.5477C41.3061 69.1359 41.3061 68.468 40.8942 68.0562ZM32.4567 68.0562C32.045 67.6443 31.3771 67.6443 30.9652 68.0561L23.8208 75.1995C23.4088 75.6113 23.4088 76.2792 23.8206 76.691C24.2323 77.1029 24.9002 77.1031 25.3122 76.6911L32.4566 69.5477C32.8686 69.1359 32.8686 68.468 32.4567 68.0562ZM31.9441 59.1059C31.5323 58.6941 30.8644 58.6941 30.4525 59.106L23.3091 66.2505C22.8973 66.6624 22.8973 67.3301 23.3092 67.7421C23.7211 68.1539 24.3889 68.1539 24.8008 67.742L31.9442 60.5975C32.356 60.1856 32.356 59.5179 31.9441 59.1059ZM55.8096 44.1906C55.3977 43.7788 54.7301 43.7788 54.318 44.1906L52.8267 45.6819C52.4148 46.0938 52.4148 46.7616 52.8267 47.1736C53.2386 47.5854 53.9063 47.5854 54.3183 47.1736L55.8096 45.6822C56.2215 45.2704 56.2215 44.6026 55.8096 44.1906Z" fill="#79FDFF"/>
</g>
<defs>
<clipPath id="clip0_94_441">
<rect width="54" height="54" fill="white" transform="translate(23 23)"/>
</clipPath>
</defs>
</svg>
