<svg width="102" height="100" viewBox="0 0 102 100" fill="none" xmlns="http://www.w3.org/2000/svg">
<path d="M100.627 50C100.627 77.3369 78.4093 99.5 51 99.5C23.5906 99.5 1.37305 77.3369 1.37305 50C1.37305 22.6631 23.5906 0.5 51 0.5C78.4093 0.5 100.627 22.6631 100.627 50Z" fill="#5F5F5F" fill-opacity="0.2" stroke="#353535"/>
<path d="M50.9998 44.3258C46.3064 44.3258 42.499 40.5078 42.499 35.825C42.499 31.1422 46.3064 27.3242 50.9998 27.3242C55.6932 27.3242 59.5006 31.1422 59.5006 35.825C59.5006 40.5078 55.6932 44.3258 50.9998 44.3258ZM50.9998 28.3578C46.876 28.3578 43.5221 31.7117 43.5221 35.8355C43.5221 39.9594 46.876 43.3133 50.9998 43.3133C55.1236 43.3133 58.4775 39.9594 58.4775 35.8355C58.4775 31.7117 55.1236 28.3578 50.9998 28.3578Z" fill="#79FDFF"/>
<path d="M50.9999 39.991C49.7131 39.991 48.6584 38.9363 48.6584 37.6496C48.6584 37.3648 48.8905 37.1328 49.1752 37.1328C49.46 37.1328 49.692 37.3648 49.692 37.6496C49.692 38.3668 50.2827 38.9574 50.9999 38.9574C51.717 38.9574 52.3077 38.3668 52.3077 37.6496C52.3077 36.9324 51.717 36.3418 50.9999 36.3418C49.7131 36.3418 48.6584 35.2871 48.6584 34.0004C48.6584 32.7031 49.7131 31.6484 50.9999 31.6484C52.2866 31.6484 53.3413 32.7031 53.3413 33.9898C53.3413 34.2746 53.1092 34.5066 52.8245 34.5066C52.5397 34.5066 52.3077 34.2746 52.3077 33.9898C52.3077 33.2727 51.717 32.682 50.9999 32.682C50.2827 32.682 49.692 33.2727 49.692 34.0004C49.692 34.7176 50.2827 35.3082 50.9999 35.3082C52.2866 35.3082 53.3413 36.3629 53.3413 37.6496C53.3413 38.9469 52.2866 39.991 50.9999 39.991Z" fill="#79FDFF"/>
<path d="M50.9999 32.682C50.7152 32.682 50.4831 32.45 50.4831 32.1652V30.6992C50.4831 30.4145 50.7152 30.1824 50.9999 30.1824C51.2847 30.1824 51.5167 30.4145 51.5167 30.6992V32.1758C51.5167 32.45 51.2847 32.682 50.9999 32.682ZM50.9999 41.4676C50.7152 41.4676 50.4831 41.2356 50.4831 40.9508V39.4742C50.4831 39.1895 50.7152 38.9574 50.9999 38.9574C51.2847 38.9574 51.5167 39.1895 51.5167 39.4742V40.9508C51.5167 41.2356 51.2847 41.4676 50.9999 41.4676ZM37.4894 61.1586C37.3101 61.1586 37.1519 61.0742 37.057 60.9266L31.5409 52.4047C31.4355 52.2465 31.4355 52.0461 31.5198 51.8774C31.6148 51.7086 31.7835 51.6031 31.9734 51.6031H34.5995V35.825C34.5995 35.5402 34.8316 35.3082 35.1163 35.3082H39.873C40.1577 35.3082 40.3898 35.5402 40.3898 35.825V51.6031H43.0159C43.2058 51.6031 43.3745 51.7086 43.4695 51.8774C43.5644 52.0461 43.5538 52.2465 43.4484 52.4047L37.9218 60.9266C37.8269 61.0742 37.6581 61.1586 37.4894 61.1586ZM32.9226 52.6367L37.4894 59.6926L42.0667 52.6367H39.873C39.5882 52.6367 39.3562 52.4047 39.3562 52.1199V36.3418H35.6331V52.1199C35.6331 52.4047 35.4011 52.6367 35.1163 52.6367H32.9226ZM50.9999 72.6758C50.8206 72.6758 50.6624 72.5914 50.5675 72.4438L45.0409 63.9113C44.9355 63.7531 44.9355 63.5527 45.0198 63.384C45.1148 63.2152 45.2835 63.1098 45.4734 63.1098H48.1101V47.3317C48.1101 47.0469 48.3421 46.8149 48.6269 46.8149H53.373C53.6577 46.8149 53.8898 47.0469 53.8898 47.3317V63.1098H56.5265C56.7163 63.1098 56.8851 63.2152 56.98 63.384C57.0749 63.5527 57.0644 63.7531 56.9589 63.9113L51.4324 72.4438C51.3374 72.5914 51.1792 72.6758 50.9999 72.6758ZM46.4226 64.1434L50.9999 71.2098L55.5773 64.1434H53.373C53.0882 64.1434 52.8562 63.9113 52.8562 63.6266V47.8484H49.1437V63.6266C49.1437 63.9113 48.9116 64.1434 48.6269 64.1434H46.4226ZM64.5105 61.1586C64.3312 61.1586 64.173 61.0742 64.0781 60.9266L58.5515 52.4047C58.446 52.2465 58.446 52.0461 58.5304 51.8774C58.6253 51.7086 58.7941 51.6031 58.9839 51.6031H61.6101V35.825C61.6101 35.5402 61.8421 35.3082 62.1269 35.3082H66.8835C67.1683 35.3082 67.4003 35.5402 67.4003 35.825V51.6031H70.0265C70.2163 51.6031 70.3851 51.7086 70.48 51.8774C70.5749 52.0461 70.5644 52.2465 70.4589 52.4047L64.9429 60.9266C64.848 61.0742 64.6898 61.1586 64.5105 61.1586ZM59.9331 52.6367L64.5105 59.6926L69.0773 52.6367H66.8835C66.5988 52.6367 66.3667 52.4047 66.3667 52.1199V36.3418H62.6437V52.1199C62.6437 52.4047 62.4116 52.6367 62.1269 52.6367H59.9331Z" fill="#79FDFF"/>
</svg>
