<svg width="101" height="100" viewBox="0 0 101 100" fill="none" xmlns="http://www.w3.org/2000/svg">
<circle cx="50.5" cy="50" r="49.5" fill="#5F5F5F" fill-opacity="0.2" stroke="#353535"/>
<path d="M74.1221 57.4301C73.6988 56.7776 73.0533 56.3006 72.3052 56.0876C71.5571 55.8746 70.7571 55.94 70.0536 56.2716L59.829 61.1477C59.8501 61.0207 59.8529 60.8915 59.8374 60.7638C59.7493 59.6065 59.2588 58.5167 58.451 57.6834C57.6433 56.85 56.5693 56.3258 55.4153 56.2016C53.3347 55.8734 48.4628 55.805 46.6353 54.7107C44.5512 53.6923 41.7609 51.89 39.352 52.1035L36.7718 52.3735C36.685 51.771 36.3843 51.2198 35.9247 50.8206C35.4651 50.4214 34.8772 50.2008 34.2684 50.1992H29.9147C29.2414 50.2001 28.5959 50.4679 28.1198 50.944C27.6438 51.4201 27.3759 52.0656 27.375 52.7388V53.6585C27.375 53.8823 27.4639 54.0969 27.6221 54.2552C27.7804 54.4134 27.995 54.5023 28.2188 54.5023C28.4425 54.5023 28.6571 54.4134 28.8154 54.2552C28.9736 54.0969 29.0625 53.8823 29.0625 53.6585V52.7388C29.0627 52.5129 29.1526 52.2963 29.3123 52.1365C29.4721 51.9767 29.6887 51.8869 29.9147 51.8867H34.2684C34.4944 51.8869 34.711 51.9767 34.8708 52.1365C35.0305 52.2963 35.1204 52.5129 35.1206 52.7388V67.5897C35.1215 67.8168 35.0323 68.0349 34.8725 68.1963C34.7128 68.3576 34.4955 68.449 34.2684 68.4503H29.9147C29.6876 68.449 29.4704 68.3576 29.3106 68.1963C29.1508 68.0349 29.0616 67.8168 29.0625 67.5897V57.0335C29.0625 56.8098 28.9736 56.5951 28.8154 56.4369C28.6571 56.2787 28.4425 56.1898 28.2188 56.1898C27.995 56.1898 27.7804 56.2787 27.6221 56.4369C27.4639 56.5951 27.375 56.8098 27.375 57.0335V67.5897C27.3746 68.2642 27.6417 68.9113 28.1179 69.389C28.594 69.8667 29.2402 70.136 29.9147 70.1378H34.2684C34.6089 70.1341 34.9453 70.0628 35.2579 69.9279C35.5705 69.793 35.8532 69.5974 36.0896 69.3522C36.3259 69.1071 36.5111 68.8174 36.6345 68.5001C36.7578 68.1827 36.8169 67.844 36.8081 67.5036L43.6341 70.1825C44.7148 70.602 45.8668 70.8075 47.0259 70.7875L56.7291 70.5934C58.3173 70.5643 59.8682 70.1066 61.2178 69.2688L69.3431 64.2223C69.5333 64.1044 69.6689 63.9157 69.72 63.6978C69.7711 63.4799 69.7336 63.2506 69.6157 63.0604C69.4977 62.8702 69.3091 62.7347 69.0912 62.6835C68.8733 62.6324 68.644 62.67 68.4538 62.7879L60.3285 67.8344C59.2366 68.5121 57.9819 68.8824 56.697 68.9059L46.9956 69.1C46.0558 69.1217 45.1212 68.9553 44.2466 68.6106L36.8081 65.6913V54.0669L39.4828 53.7876C41.4926 53.6442 44.1209 55.3874 45.87 56.2151C47.9777 57.4706 52.8529 57.5254 55.2348 57.8807C55.987 57.9588 56.6889 58.2953 57.2209 58.8328C57.753 59.3703 58.0822 60.0757 58.1525 60.8287C58.1697 60.9507 58.1608 61.0749 58.1264 61.1931C58.0919 61.3114 58.0327 61.421 57.9527 61.5146C57.8726 61.6082 57.7736 61.6837 57.6621 61.7361C57.5507 61.7885 57.4293 61.8165 57.3062 61.8184H50.6726C50.4488 61.8184 50.2342 61.9073 50.076 62.0656C49.9178 62.2238 49.8289 62.4384 49.8289 62.6622C49.8289 62.886 49.9178 63.1006 50.076 63.2588C50.2342 63.417 50.4488 63.5059 50.6726 63.5059C50.6726 63.5059 57.2775 63.5135 57.318 63.5059C57.9805 63.5765 58.6505 63.4996 59.2797 63.2807L70.7775 57.7963C71.1252 57.636 71.5207 57.6135 71.8843 57.7334C72.2478 57.8533 72.5524 58.1067 72.7365 58.4424C72.9205 58.778 72.9704 59.1711 72.876 59.5421C72.7816 59.9131 72.55 60.2345 72.2279 60.4414L71.3926 60.9561C71.202 61.0736 71.066 61.262 71.0143 61.4798C70.9627 61.6976 70.9996 61.927 71.1171 62.1175C71.2346 62.3081 71.423 62.4442 71.6408 62.4958C71.8586 62.5475 72.088 62.5105 72.2785 62.393L73.1172 61.8758C73.4759 61.6505 73.7865 61.3565 74.0313 61.0108C74.276 60.6651 74.4501 60.2745 74.5435 59.8613C74.6368 59.4481 74.6477 59.0206 74.5754 58.6033C74.5031 58.1859 74.349 57.7878 74.1221 57.4301Z" fill="#79FDFF"/>
<path d="M53 37.8183H57.5504C58.5544 37.8183 59.3803 38.7275 59.3803 39.6528C59.3803 40.6594 58.5706 41.4874 57.5504 41.4874H53V37.8183Z" stroke="#79FDFF" stroke-width="1.5" stroke-miterlimit="10" stroke-linecap="round" stroke-linejoin="round"/>
<path d="M53 41.4874H58.2144C59.3641 41.4874 60.3034 42.2991 60.3034 43.3219C60.3034 44.3285 59.3641 45.1564 58.2144 45.1564H53V41.4874Z" stroke="#79FDFF" stroke-width="1.5" stroke-miterlimit="10" stroke-linecap="round" stroke-linejoin="round"/>
<path d="M55.915 45.1402V46.9585" stroke="#79FDFF" stroke-width="1.5" stroke-miterlimit="10" stroke-linecap="round" stroke-linejoin="round"/>
<path d="M55.915 36V37.8183" stroke="#79FDFF" stroke-width="1.5" stroke-miterlimit="10" stroke-linecap="round" stroke-linejoin="round"/>
<path d="M55.9708 52C58.1292 52.001 60.2404 51.3702 62.0425 50.1859C63.8447 49.0017 65.2585 47.316 66.1087 45.3379C66.9589 43.3598 67.208 41.1764 66.8252 39.0585C66.4423 36.9406 65.4444 34.9813 63.9551 33.4237C63.8163 33.2786 63.6254 33.1944 63.4243 33.1897C63.2233 33.1849 63.0286 33.26 62.883 33.3984C62.7375 33.5368 62.6531 33.7271 62.6483 33.9276C62.6436 34.128 62.7189 34.3221 62.8577 34.4672C68.6137 40.3848 64.2431 50.5476 55.9708 50.4887C53.4489 50.4857 51.0312 49.4854 49.2481 47.7072C47.465 45.929 46.4621 43.5182 46.4595 41.0037C46.3352 33.8892 54.474 29.1497 60.6257 32.7315C60.8011 32.829 61.0081 32.8534 61.2014 32.7991C61.3947 32.7449 61.5586 32.6165 61.6572 32.4421C62.5613 30.8635 57.0068 29.8963 55.9708 30.0089C41.3423 30.6119 41.3438 51.3977 55.9708 52Z" fill="#79FDFF"/>
</svg>
