<svg width="115" height="66" viewBox="0 0 115 66" fill="none" xmlns="http://www.w3.org/2000/svg">
<path d="M0.48 27.04V25.2H11.48V27.04H7V39H4.96V27.04H0.48ZM13.7131 35.84V28.36C13.7131 26.2533 14.7598 25.2 16.8531 25.2H21.4931C23.5865 25.2 24.6331 26.2533 24.6331 28.36V35.84C24.6331 37.9467 23.5865 39 21.4931 39H16.8531C14.7598 39 13.7131 37.9467 13.7131 35.84ZM15.7331 36.04C15.7331 36.7867 16.1131 37.16 16.8731 37.16H21.4731C22.2331 37.16 22.6131 36.7867 22.6131 36.04V28.16C22.6131 27.4133 22.2331 27.04 21.4731 27.04H16.8731C16.1131 27.04 15.7331 27.4133 15.7331 28.16V36.04ZM28.1561 39V25.2H30.1761V31.8L36.0961 25.2H37.9761L38.1961 25.64L33.4761 30.88L38.6561 38.56L38.4561 39H36.5961L32.1561 32.36L30.1761 34.52V39H28.1561ZM41.2077 39V25.2H50.3277V27.04H43.2277V30.88H49.7277V32.72H43.2277V37.16H50.3277V39H41.2077ZM53.2827 39V25.2H55.5027L62.2427 35.78V25.2H64.2627V39H62.0427L55.3027 28.42V39H53.2827ZM66.5948 25.62L66.8748 25.2H68.6348L72.3148 37.16H72.7348L76.4148 25.2H78.1748L78.4348 25.62L74.2148 39H70.8348L66.5948 25.62ZM80.7725 39V25.2H89.8925V27.04H82.7925V30.88H89.2925V32.72H82.7925V37.16H89.8925V39H80.7725ZM92.2475 38.2V37.16H98.4075C99.1675 37.16 99.5475 36.7867 99.5475 36.04V34.46C99.5475 33.8067 99.2608 33.4267 98.6875 33.32L94.5075 32.46C93.0008 32.1667 92.2475 31.16 92.2475 29.44V28.36C92.2475 26.2533 93.2942 25.2 95.3875 25.2H100.148L101.168 26V27.04H95.4075C94.6475 27.04 94.2675 27.4133 94.2675 28.16V29.52C94.2675 30.1733 94.5542 30.5533 95.1275 30.66L99.3275 31.48C100.821 31.8 101.568 32.8133 101.568 34.52V35.84C101.568 37.9467 100.521 39 98.4275 39H93.2675L92.2475 38.2ZM103.408 27.04V25.2H114.408V27.04H109.928V39H107.888V27.04H103.408Z" fill="white"/>
<path fill-rule="evenodd" clip-rule="evenodd" d="M31.4209 18.232L56.9997 3.4641L82.5786 18.232V21H85.5786V16.5L56.9997 0L28.4209 16.5V21H31.4209V18.232ZM31.4209 42H28.4209V49.5L56.9997 66L85.5786 49.5V42H82.5786V47.7679L56.9997 62.5359L31.4209 47.7679V42Z" fill="#28DBD1"/>
</svg>
